<?xml version="1.0" standalone="no"?><!DOCTYPE svg PUBLIC "-//W3C//DTD SVG 1.1//EN"
        "http://www.w3.org/Graphics/SVG/1.1/DTD/svg11.dtd">
<svg t="1699798560969" class="icon" viewBox="0 0 1024 1024" version="1.1" xmlns="http://www.w3.org/2000/svg" p-id="6930"
     width="200" height="200">
    <path d="M901.411989 467.589959A117.482977 117.482977 0 0 0 790.870121 545.765528h-88.880913a189.090286 189.090286 0 0 0-96.848631-199.244019l34.036456-112.63084a117.452331 117.452331 0 1 0-16.589197-5.37821l-33.398017 110.541869a189.371199 189.371199 0 0 0-200.776272 34.460379l-174.559416-174.727964-1.874456 2.007252a118.489156 118.489156 0 1 0-4.26988 4.223912l-6.226056 6.093261 174.727964 174.641136a188.977921 188.977921 0 0 0-10.878999 241.810018L215.687728 748.380504a117.437009 117.437009 0 1 0 9.551046 14.67388l151.146584-122.018447a188.916631 188.916631 0 0 0 217.83536 44.231049l52.632905 119.326788a117.365504 117.365504 0 1 0 57.995791-15.353179 120.179743 120.179743 0 0 0-42.392344 7.885997l-52.709517-119.878399a189.355876 189.355876 0 0 0 88.319086-114.035406h88.109679a117.385934 117.385934 0 1 0 115.235671-95.612613z m0 0"
          p-id="6931" fill="#ffffff"></path>
</svg>