<?xml version="1.0" standalone="no"?><!DOCTYPE svg PUBLIC "-//W3C//DTD SVG 1.1//EN" "http://www.w3.org/Graphics/SVG/1.1/DTD/svg11.dtd"><svg t="1700277734085" class="icon" viewBox="0 0 1024 1024" version="1.1" xmlns="http://www.w3.org/2000/svg" p-id="17664" xmlns:xlink="http://www.w3.org/1999/xlink" width="200" height="200"><path d="M48 64H6.4v51.84A48.64 48.64 0 0 1 48 64z" p-id="17665" fill="#ffffff"></path><path d="M1018.24 250.88a64 64 0 0 0-53.12-69.12H527.36l-45.44-64A88.32 88.32 0 0 0 410.24 64H48a48.64 48.64 0 0 0-41.6 51.84v181.76h1011.84zM8.32 875.52a55.04 55.04 0 0 0 55.04 55.04h901.76a54.4 54.4 0 0 0 55.04-55.04V345.6a55.04 55.04 0 0 0 0-17.28H8.32zM344.32 576a87.68 87.68 0 0 1 121.6 0l74.24-44.16A88.32 88.32 0 0 1 576 438.4a88.32 88.32 0 1 1 50.56 160.64 90.24 90.24 0 0 1-64-25.6l-73.6 44.16a88.96 88.96 0 0 1 0 58.88l39.68 29.44a88.32 88.32 0 1 1-26.24 35.2l-39.68-29.44A88.32 88.32 0 0 1 344.32 576z" p-id="17666" fill="#ffffff"></path></svg>