<?xml version="1.0" standalone="no"?><!DOCTYPE svg PUBLIC "-//W3C//DTD SVG 1.1//EN" "http://www.w3.org/Graphics/SVG/1.1/DTD/svg11.dtd"><svg t="1700481472727" class="icon" viewBox="0 0 1024 1024" version="1.1" xmlns="http://www.w3.org/2000/svg" p-id="17686" xmlns:xlink="http://www.w3.org/1999/xlink" width="200" height="200"><path d="M896 377.6L553.6 73.6A32 32 0 0 0 532.48 64H192a32 32 0 0 0-32 32v832a32 32 0 0 0 32 32h683.52a32 32 0 0 0 32-32V401.28A32 32 0 0 0 896 377.6z m-52.48 518.4H221.44V128h298.88l323.2 288z" fill="#ffffff" p-id="17687"></path><path d="M396.16 310.4L303.36 402.56a32 32 0 0 0-8.32 30.72l33.92 128a32 32 0 0 0 22.4 22.4l108.16 28.8 28.8 108.16a32 32 0 0 0 23.68 21.76l128 33.92h8.32a32 32 0 0 0 22.4-9.6l92.16-92.16a32 32 0 0 0 8.32-30.72l-33.92-128a32 32 0 0 0-22.4-22.4l-110.08-26.88L576 358.4a32 32 0 0 0-22.4-22.4l-128-33.92a32.64 32.64 0 0 0-29.44 8.32z m307.2 332.8l-64 64-90.24-24.32-27.52-88.32 64-64 90.88 24.32zM518.4 392.96l24.32 90.24-64 64L384 525.44l-22.4-90.88 64-64zM341.12 236.16h89.6a32 32 0 0 0 0-64h-89.6a32 32 0 0 0 0 64z" fill="#ffffff" p-id="17688"></path></svg>