<?xml version="1.0" standalone="no"?><!DOCTYPE svg PUBLIC "-//W3C//DTD SVG 1.1//EN" "http://www.w3.org/Graphics/SVG/1.1/DTD/svg11.dtd"><svg t="1700481383676" class="icon" viewBox="0 0 1024 1024" version="1.1" xmlns="http://www.w3.org/2000/svg" p-id="12716" xmlns:xlink="http://www.w3.org/1999/xlink" width="200" height="200"><path d="M0 0h1024v1024H0z" fill="#ffffff" fill-opacity="0" p-id="12717"></path><path d="M848 73.6a102.4 102.4 0 0 1 102.4 102.4v672a102.4 102.4 0 0 1-102.4 102.4H176a102.4 102.4 0 0 1-102.4-102.4V176a102.4 102.4 0 0 1 102.4-102.4h672z m0 76.8H176a25.6 25.6 0 0 0-25.6 25.6v672c0 14.08 11.52 25.6 25.6 25.6h672a25.6 25.6 0 0 0 25.6-25.6V176a25.6 25.6 0 0 0-25.6-25.6z" fill="#ffffff" p-id="12718"></path><path d="M912 633.6a38.4 38.4 0 0 1 0 76.8H112a38.4 38.4 0 1 1 0-76.8h800zM265.856 753.6a38.4 38.4 0 0 1 0 76.8h-30.72a38.4 38.4 0 0 1 0-76.8h30.72zM788.928 753.6a38.4 38.4 0 0 1 0 76.8H581.76a38.4 38.4 0 0 1 0-76.8h207.104zM513.024 224.704a38.4 38.4 0 0 1 73.984 20.736l-89.6 320a38.4 38.4 0 0 1-73.984-20.736l89.6-320zM343.68 272a38.4 38.4 0 0 1 54.272 54.272l-62.4 62.464 62.4 62.464a38.4 38.4 0 0 1 4.48 48.96l-4.48 5.312a38.4 38.4 0 0 1-54.272 0l-89.6-89.6a38.4 38.4 0 0 1 0-54.272l89.6-89.6z m281.6 0a38.4 38.4 0 0 1 54.272 0l89.6 89.6a38.4 38.4 0 0 1 0 54.272l-89.6 89.6a38.4 38.4 0 0 1-54.272-54.272l62.4-62.464-62.4-62.464a38.4 38.4 0 0 1-4.48-48.96l4.48-5.312z" fill="#ffffff" p-id="12719"></path></svg>