<?xml version="1.0" standalone="no"?><!DOCTYPE svg PUBLIC "-//W3C//DTD SVG 1.1//EN" "http://www.w3.org/Graphics/SVG/1.1/DTD/svg11.dtd"><svg t="1700273890656" class="icon" viewBox="0 0 1024 1024" version="1.1" xmlns="http://www.w3.org/2000/svg" p-id="12239" xmlns:xlink="http://www.w3.org/1999/xlink" width="200" height="200"><path d="M704 170.666667H128c-47.146667 0-85.333333 38.186667-85.333333 85.333333v64h746.666666v-64c0-47.146667-38.186667-85.333333-85.333333-85.333333zM533.333333 661.333333c0-141.44 114.56-256 256-256v-21.333333H42.666667v384c0 47.146667 38.186667 85.333333 85.333333 85.333333h492.373333c-53.333333-46.933333-87.04-115.413333-87.04-192z m-233.386666 40.32c12.586667 12.586667 12.586667 32.853333 0 45.226667-12.586667 12.586667-32.853333 12.586667-45.226667 0l-84.266667-84.266667a31.786667 31.786667 0 0 1 0-45.226666l84.266667-84.266667a31.786667 31.786667 0 0 1 45.226667 0c12.586667 12.586667 12.586667 32.853333 0 45.226667L238.293333 640l61.653334 61.653333z m165.546666-148.053333l-36.266666 186.026667c-3.626667 17.28-20.693333 28.373333-37.973334 24.746666-17.28-3.626667-28.373333-20.693333-24.746666-37.973333l36.266666-186.026667c3.626667-17.28 20.693333-28.373333 37.973334-24.746666 17.28 3.84 28.373333 20.693333 24.746666 37.973333zM753.066667 711.04l80.853333-18.986667c1.066667-3.413333 2.346667-6.826667 4.266667-9.813333l-46.506667-60.8-38.613333 89.6z" p-id="12240" fill="#ffffff"></path><path d="M789.333333 469.333333a192 192 0 1 0 0.021334 384.021334A192 192 0 0 0 789.333333 469.333333z m85.333334 277.333334c-12.16 0-23.04-5.12-30.72-13.226667l-92.373334 21.546667c-3.84 19.626667-21.12 34.133333-41.813333 34.133333-23.466667 0-42.666667-19.2-42.666667-42.666667s18.986667-42.453333 42.453334-42.666666l44.8-103.68c-4.906667-6.613333-7.68-15.146667-7.68-24.106667 0-23.466667 19.2-42.666667 42.666666-42.666667s42.666667 19.2 42.666667 42.666667c0 7.466667-2.133333 14.506667-5.546667 20.48L875.946667 661.333333c23.04 0.853333 41.386667 19.626667 41.386666 42.666667 0 23.466667-19.2 42.666667-42.666666 42.666667z" p-id="12241" fill="#ffffff"></path></svg>