<?xml version="1.0" standalone="no"?><!DOCTYPE svg PUBLIC "-//W3C//DTD SVG 1.1//EN" "http://www.w3.org/Graphics/SVG/1.1/DTD/svg11.dtd"><svg t="1700272545290" class="icon" viewBox="0 0 1024 1024" version="1.1" xmlns="http://www.w3.org/2000/svg" p-id="8361" xmlns:xlink="http://www.w3.org/1999/xlink" width="200" height="200"><path d="M513.3 1023.9c-36.5 0-73.2-3.9-109.7-11.8C270.1 983 155.8 903.7 81.8 788.7-31.8 611.9-26.7 387 94.9 215.6c14.7-20.7 43.4-25.5 64-10.9 20.7 14.7 25.5 43.3 10.9 64C70 409.4 65.8 594 159 739c60.7 94.4 154.5 159.5 264.1 183.3 109.6 23.9 222 3.5 316.3-57.2 194.8-125.3 251.4-385.7 126.1-580.5-125.2-194.8-385.6-251.3-580.4-126-21.3 13.7-49.7 7.5-63.4-13.8-13.7-21.3-7.5-49.7 13.8-63.4C472.8-71.3 790.2-2.4 942.8 235c152.6 237.4 83.7 554.7-153.6 707.4-83.6 53.7-178.8 81.5-275.9 81.5z" fill="#ffffff" p-id="8362"></path><path d="M511.1 674.8m-58.6 0a58.6 58.6 0 1 0 117.2 0 58.6 58.6 0 1 0-117.2 0Z" fill="#ffffff" p-id="8363"></path><path d="M511.9 564.7c-25.4 0-45.9-20.6-45.9-45.9v-177c0-25.4 20.6-45.9 45.9-45.9 25.4 0 45.9 20.6 45.9 45.9v177c0.1 25.3-20.5 45.9-45.9 45.9z" fill="#ffffff" p-id="8364"></path></svg>