<?xml version="1.0" standalone="no"?><!DOCTYPE svg PUBLIC "-//W3C//DTD SVG 1.1//EN"
        "http://www.w3.org/Graphics/SVG/1.1/DTD/svg11.dtd">
<svg t="1699798667109" class="icon" viewBox="0 0 1024 1024" version="1.1" xmlns="http://www.w3.org/2000/svg"
     p-id="12429"
     width="200" height="200">
    <path d="M512 704c105.6 0 192-86.4 192-192V256c0-105.6-86.4-192-192-192s-192 86.4-192 192v256c0 105.6 86.4 192 192 192z"
          fill="#ffffff" p-id="12430"></path>
    <path d="M832 512c0-19.2-12.8-32-32-32s-32 12.8-32 32c0 140.8-115.2 256-256 256s-256-115.2-256-256c0-19.2-12.8-32-32-32s-32 12.8-32 32c0 166.4 128 300.8 288 316.8V896h-160c-19.2 0-32 12.8-32 32s12.8 32 32 32h384c19.2 0 32-12.8 32-32s-12.8-32-32-32h-160v-67.2c160-16 288-150.4 288-316.8z"
          fill="#ffffff" p-id="12431"></path>
</svg>