<?xml version="1.0" standalone="no"?><!DOCTYPE svg PUBLIC "-//W3C//DTD SVG 1.1//EN" "http://www.w3.org/Graphics/SVG/1.1/DTD/svg11.dtd"><svg t="1700274496829" class="icon" viewBox="0 0 1024 1024" version="1.1" xmlns="http://www.w3.org/2000/svg" p-id="14626" xmlns:xlink="http://www.w3.org/1999/xlink" width="200" height="200"><path d="M858.624 824.832l-25.6-38.912 76.8-45.056V279.04l-230.912-135.168 22.528-38.912 253.44 147.456v513.536l-96.256 58.88zM107.52 558.592h-45.056V257.024L518.656 0l102.912 57.344-22.528 41.984-80.384-48.128L107.52 282.624v275.968zM508.416 1024l-445.952-253.44V645.12H107.52v99.328L508.416 972.8l260.096-147.456 22.528 38.912L508.416 1024zM476.16 270.848L363.52 205.312v-39.424l148.992-87.04 145.408 87.04v39.424l-108.544 65.536-3.584 39.936-32.256-22.016-37.376 22.016v-39.936z m228.352 261.12V401.408l-112.128-65.536v-39.424l145.408-83.456 148.992 83.456v169.984l-148.992 83.456-33.28-17.92zM363.52 858.112v-166.4l32.256-22.016 112.128 65.024 115.712-65.024 32.256 18.432v169.984l-148.992 87.04c1.024 0-143.36-87.04-143.36-87.04z m340.992-65.024v-130.56l-35.84-22.016 35.84-18.432v-39.936l32.256 22.016 112.128-65.024 35.84 18.432v169.984l-148.992 83.456-31.232-17.92z m-324.096-205.824V436.736L512 363.008l128.512 73.728v150.528l-131.584 73.728-128.512-73.728z m-248.832 140.288l3.584-169.984 32.256-18.432 112.64 65.024 35.84-22.016v39.424l35.84 22.016-35.84 18.432v130.56l-35.84 18.432-148.48-83.456z m0-261.12l3.584-169.984 148.992-83.456 145.408 83.456v39.424l-112.64 65.536v126.976l-35.84 22.016-149.504-83.968z" p-id="14627" fill="#ffffff"></path></svg>